# xmcd
#
# Track frame offsets:
#	150
#	14582
#	29687
#	41775
#	59448
#	76228
#	91066
#	109527
#	124743
#	140205
#	152645
#	168194
#	186052
#	201271
#
# Disc length: 2917 seconds
#
# Revision: 1
# Processed by: cddbd v1.5.1PL0 Copyright (c) Steve Scherf et al.
# Submitted via: audiograbber 1.82.01
#
DISCID=bc0b630e
DTITLE=The Del McCoury Band - The Company We Keep
DYEAR=2005
DGENRE=Bluegrass
TTITLE0=Nothin' Special
TTITLE1=Never Grow Up Boy
TTITLE2=If Here Is Where You Are
TTITLE3=She Can't Burn Me Now
TTITLE4=Mountain Song
TTITLE5=Untamed
TTITLE6=Seventh Heaven
TTITLE7=Fathers and Sons
TTITLE8=When It Stops Hurtin'
TTITLE9=Keep Her While She's There
TTITLE10=When Fall's Coming Down
TTITLE11=I Never Knew Life
TTITLE12=Eyes That Won't Meet Mine
TTITLE13=Blown Away and Gone
EXTD=
EXTT0=
EXTT1=
EXTT2=
EXTT3=
EXTT4=
EXTT5=
EXTT6=
EXTT7=
EXTT8=
EXTT9=
EXTT10=
EXTT11=
EXTT12=
EXTT13=
PLAYORDER=
